<?xml version="1.0" standalone="no"?>
<!DOCTYPE svg PUBLIC "-//W3C//DTD SVG 20010904//EN"
 "http://www.w3.org/TR/2001/REC-SVG-20010904/DTD/svg10.dtd">
<svg class="opac2" version="1.0" xmlns="http://www.w3.org/2000/svg"
 width="23.000000pt" height="26.000000pt" viewBox="0 0 1280.000000 1139.000000"
 preserveAspectRatio="xMidYMid meet">
<metadata>
Created by potrace 1.15, written by Peter Selinger 2001-2017
</metadata>
<g transform="translate(0.000000,1139.000000) scale(0.100000,-0.100000)"
fill="#000000" stroke="none">
<path d="M3291 11380 c-1384 -116 -2576 -1013 -3056 -2300 -327 -877 -310
-1879 49 -2903 214 -612 527 -1201 960 -1807 1043 -1462 2670 -2871 4891
-4235 289 -178 236 -181 591 38 1831 1131 3254 2292 4275 3487 997 1168 1594
2352 1753 3480 33 231 40 345 40 620 0 277 -5 354 -40 590 -97 648 -365 1248
-788 1760 -94 115 -328 347 -453 451 -529 440 -1189 724 -1869 804 -629 74
-1322 -35 -1901 -298 -542 -246 -1004 -675 -1288 -1195 -27 -50 -52 -92 -55
-92 -3 0 -27 41 -55 92 -459 842 -1290 1362 -2385 1493 -160 19 -523 27 -669
15z m677 -114 c486 -64 917 -200 1260 -397 461 -265 811 -629 1068 -1113 73
-136 92 -158 122 -140 9 6 48 69 86 140 469 881 1258 1384 2381 1516 160 19
596 16 760 -6 1165 -151 2162 -851 2678 -1881 327 -651 442 -1388 341 -2180
-144 -1117 -740 -2313 -1733 -3475 -1024 -1198 -2448 -2359 -4270 -3482 -180
-111 -232 -138 -261 -138 -29 0 -81 27 -261 138 -1759 1083 -3173 2225 -4179
3376 -905 1036 -1496 2093 -1736 3102 -270 1141 -94 2226 501 3079 223 320
549 645 870 867 487 337 1090 556 1675 607 144 13 561 5 698 -13z"/>
</g>
</svg>
